<mxfile host="app.diagrams.net" modified="2023-08-13T23:15:52.591Z" agent="Mozilla/5.0 (Windows NT 10.0; Win64; x64) AppleWebKit/537.36 (KHTML, like Gecko) Chrome/115.0.0.0 Safari/537.36" etag="WRzHO88UqmHUxMhvVcX5" version="21.6.8" type="github">
  <diagram name="Page-1" id="Xl1nf2hl-qh3Eg5BBoAH">
    <mxGraphModel dx="1050" dy="1679" grid="1" gridSize="10" guides="1" tooltips="1" connect="1" arrows="1" fold="1" page="1" pageScale="1" pageWidth="850" pageHeight="1100" math="0" shadow="0">
      <root>
        <mxCell id="0" />
        <mxCell id="1" parent="0" />
        <mxCell id="ypLEXeXIEpCvjVQCxORQ-1" value="" style="rounded=0;whiteSpace=wrap;html=1;" parent="1" vertex="1">
          <mxGeometry x="30" y="-20" width="700" height="730" as="geometry" />
        </mxCell>
        <mxCell id="ypLEXeXIEpCvjVQCxORQ-2" value="" style="rounded=1;whiteSpace=wrap;html=1;" parent="1" vertex="1">
          <mxGeometry x="40" y="114.37" width="370" height="135.63" as="geometry" />
        </mxCell>
        <mxCell id="ypLEXeXIEpCvjVQCxORQ-3" value="" style="sketch=0;outlineConnect=0;fontColor=#232F3E;gradientColor=none;fillColor=#232F3D;strokeColor=none;dashed=0;verticalLabelPosition=bottom;verticalAlign=top;align=center;html=1;fontSize=12;fontStyle=0;aspect=fixed;pointerEvents=1;shape=mxgraph.aws4.folder;" parent="1" vertex="1">
          <mxGeometry x="50" y="154.5" width="43.94" height="40" as="geometry" />
        </mxCell>
        <mxCell id="ypLEXeXIEpCvjVQCxORQ-4" style="edgeStyle=orthogonalEdgeStyle;rounded=0;orthogonalLoop=1;jettySize=auto;html=1;entryX=0;entryY=0.5;entryDx=0;entryDy=0;" parent="1" source="ypLEXeXIEpCvjVQCxORQ-5" target="ypLEXeXIEpCvjVQCxORQ-17" edge="1">
          <mxGeometry relative="1" as="geometry" />
        </mxCell>
        <mxCell id="ypLEXeXIEpCvjVQCxORQ-5" value="" style="whiteSpace=wrap;html=1;shape=mxgraph.basic.document" parent="1" vertex="1">
          <mxGeometry x="180" y="151" width="40" height="47" as="geometry" />
        </mxCell>
        <mxCell id="ypLEXeXIEpCvjVQCxORQ-6" value="&lt;font style=&quot;font-size: 10px;&quot;&gt;Model developement&lt;/font&gt;" style="text;strokeColor=none;align=center;fillColor=none;html=1;verticalAlign=middle;whiteSpace=wrap;rounded=0;" parent="1" vertex="1">
          <mxGeometry x="170" y="200" width="60" height="30" as="geometry" />
        </mxCell>
        <mxCell id="ypLEXeXIEpCvjVQCxORQ-7" style="edgeStyle=orthogonalEdgeStyle;rounded=0;orthogonalLoop=1;jettySize=auto;html=1;" parent="1" source="ypLEXeXIEpCvjVQCxORQ-9" target="ypLEXeXIEpCvjVQCxORQ-20" edge="1">
          <mxGeometry relative="1" as="geometry" />
        </mxCell>
        <mxCell id="ypLEXeXIEpCvjVQCxORQ-8" style="edgeStyle=orthogonalEdgeStyle;rounded=0;orthogonalLoop=1;jettySize=auto;html=1;entryX=0.5;entryY=0;entryDx=0;entryDy=0;" parent="1" source="ypLEXeXIEpCvjVQCxORQ-9" target="ypLEXeXIEpCvjVQCxORQ-33" edge="1">
          <mxGeometry relative="1" as="geometry" />
        </mxCell>
        <mxCell id="ypLEXeXIEpCvjVQCxORQ-9" value="" style="shape=image;imageAspect=0;aspect=fixed;verticalLabelPosition=bottom;verticalAlign=top;image=https://upload.wikimedia.org/wikipedia/commons/thumb/b/ba/Pytest_logo.svg/2048px-Pytest_logo.svg.png;" parent="1" vertex="1">
          <mxGeometry x="345" y="48.72" width="40" height="40" as="geometry" />
        </mxCell>
        <mxCell id="ypLEXeXIEpCvjVQCxORQ-10" value="" style="shape=image;imageAspect=0;aspect=fixed;verticalLabelPosition=bottom;verticalAlign=top;image=https://upload.wikimedia.org/wikipedia/commons/thumb/c/c3/Python-logo-notext.svg/1869px-Python-logo-notext.svg.png;" parent="1" vertex="1">
          <mxGeometry x="210.7" y="188.16" width="16.3" height="17.84" as="geometry" />
        </mxCell>
        <mxCell id="ypLEXeXIEpCvjVQCxORQ-11" value="" style="shape=image;imageAspect=0;aspect=fixed;verticalLabelPosition=bottom;verticalAlign=top;image=https://upload.wikimedia.org/wikipedia/commons/thumb/3/38/Jupyter_logo.svg/1200px-Jupyter_logo.svg.png;" parent="1" vertex="1">
          <mxGeometry x="185" y="157" width="30" height="34.74" as="geometry" />
        </mxCell>
        <mxCell id="ypLEXeXIEpCvjVQCxORQ-12" value="" style="endArrow=classic;html=1;rounded=0;entryX=0;entryY=0.5;entryDx=0;entryDy=0;entryPerimeter=0;" parent="1" source="ypLEXeXIEpCvjVQCxORQ-14" target="ypLEXeXIEpCvjVQCxORQ-5" edge="1">
          <mxGeometry width="50" height="50" relative="1" as="geometry">
            <mxPoint x="180" y="200" as="sourcePoint" />
            <mxPoint x="230" y="150" as="targetPoint" />
          </mxGeometry>
        </mxCell>
        <mxCell id="ypLEXeXIEpCvjVQCxORQ-13" value="&lt;font style=&quot;font-size: 10px;&quot;&gt;DATA&lt;/font&gt;" style="text;strokeColor=none;align=center;fillColor=none;html=1;verticalAlign=middle;whiteSpace=wrap;rounded=0;" parent="1" vertex="1">
          <mxGeometry x="52.95" y="171.11" width="38.03" height="13.26" as="geometry" />
        </mxCell>
        <mxCell id="ypLEXeXIEpCvjVQCxORQ-14" value="&lt;font style=&quot;font-size: 10px;&quot;&gt;Preprocess&lt;/font&gt;" style="text;strokeColor=none;align=center;fillColor=none;html=1;verticalAlign=middle;whiteSpace=wrap;rounded=0;" parent="1" vertex="1">
          <mxGeometry x="110" y="164.37" width="50" height="20" as="geometry" />
        </mxCell>
        <mxCell id="ypLEXeXIEpCvjVQCxORQ-15" value="" style="endArrow=none;html=1;rounded=0;entryX=0;entryY=0.5;entryDx=0;entryDy=0;" parent="1" source="ypLEXeXIEpCvjVQCxORQ-3" target="ypLEXeXIEpCvjVQCxORQ-14" edge="1">
          <mxGeometry width="50" height="50" relative="1" as="geometry">
            <mxPoint x="150" y="260" as="sourcePoint" />
            <mxPoint x="210" y="230" as="targetPoint" />
          </mxGeometry>
        </mxCell>
        <mxCell id="ypLEXeXIEpCvjVQCxORQ-16" style="edgeStyle=orthogonalEdgeStyle;rounded=0;orthogonalLoop=1;jettySize=auto;html=1;entryX=0;entryY=0.5;entryDx=0;entryDy=0;" parent="1" source="ypLEXeXIEpCvjVQCxORQ-17" target="ypLEXeXIEpCvjVQCxORQ-20" edge="1">
          <mxGeometry relative="1" as="geometry" />
        </mxCell>
        <mxCell id="ypLEXeXIEpCvjVQCxORQ-17" value="&lt;font style=&quot;font-size: 10px;&quot;&gt;Training&lt;/font&gt;" style="text;strokeColor=none;align=center;fillColor=none;html=1;verticalAlign=middle;whiteSpace=wrap;rounded=0;" parent="1" vertex="1">
          <mxGeometry x="260" y="164.5" width="40" height="20" as="geometry" />
        </mxCell>
        <mxCell id="ypLEXeXIEpCvjVQCxORQ-18" style="edgeStyle=orthogonalEdgeStyle;rounded=0;orthogonalLoop=1;jettySize=auto;html=1;entryX=0.5;entryY=0;entryDx=0;entryDy=0;" parent="1" target="ypLEXeXIEpCvjVQCxORQ-17" edge="1">
          <mxGeometry relative="1" as="geometry">
            <mxPoint x="280" y="77.44000000000005" as="sourcePoint" />
          </mxGeometry>
        </mxCell>
        <mxCell id="ypLEXeXIEpCvjVQCxORQ-19" style="edgeStyle=orthogonalEdgeStyle;rounded=0;orthogonalLoop=1;jettySize=auto;html=1;entryX=0;entryY=0.5;entryDx=0;entryDy=0;" parent="1" source="ypLEXeXIEpCvjVQCxORQ-20" target="ypLEXeXIEpCvjVQCxORQ-33" edge="1">
          <mxGeometry relative="1" as="geometry" />
        </mxCell>
        <mxCell id="ypLEXeXIEpCvjVQCxORQ-20" value="" style="shape=image;imageAspect=0;aspect=fixed;verticalLabelPosition=bottom;verticalAlign=top;image=https://upload.wikimedia.org/wikipedia/commons/d/d5/Hey_Machine_Learning_Logo.png;" parent="1" vertex="1">
          <mxGeometry x="340" y="150" width="50" height="50" as="geometry" />
        </mxCell>
        <mxCell id="ypLEXeXIEpCvjVQCxORQ-21" value="&lt;font style=&quot;font-size: 10px;&quot;&gt;Model&amp;nbsp;&lt;/font&gt;" style="text;strokeColor=none;align=center;fillColor=none;html=1;verticalAlign=middle;whiteSpace=wrap;rounded=0;" parent="1" vertex="1">
          <mxGeometry x="337" y="208" width="60" height="14" as="geometry" />
        </mxCell>
        <mxCell id="ypLEXeXIEpCvjVQCxORQ-22" value="" style="shape=image;imageAspect=0;aspect=fixed;verticalLabelPosition=bottom;verticalAlign=top;image=https://git-scm.com/images/logos/downloads/Git-Icon-1788C.png;" parent="1" vertex="1">
          <mxGeometry x="57.47" y="235.5" width="29" height="29" as="geometry" />
        </mxCell>
        <mxCell id="ypLEXeXIEpCvjVQCxORQ-23" value="&lt;font style=&quot;font-size: 10px;&quot;&gt;&lt;b&gt;Local Git Repo&lt;/b&gt;&lt;/font&gt;" style="text;strokeColor=none;align=center;fillColor=none;html=1;verticalAlign=middle;whiteSpace=wrap;rounded=0;" parent="1" vertex="1">
          <mxGeometry x="86.47" y="250" width="80" height="20" as="geometry" />
        </mxCell>
        <mxCell id="ypLEXeXIEpCvjVQCxORQ-24" style="edgeStyle=orthogonalEdgeStyle;rounded=0;orthogonalLoop=1;jettySize=auto;html=1;entryX=0;entryY=0.5;entryDx=0;entryDy=0;" parent="1" source="ypLEXeXIEpCvjVQCxORQ-33" target="ypLEXeXIEpCvjVQCxORQ-25" edge="1">
          <mxGeometry relative="1" as="geometry" />
        </mxCell>
        <mxCell id="ypLEXeXIEpCvjVQCxORQ-25" value="" style="shape=image;verticalLabelPosition=bottom;labelBackgroundColor=default;verticalAlign=top;aspect=fixed;imageAspect=0;image=https://www.docker.com/wp-content/uploads/2022/03/vertical-logo-monochromatic.png;" parent="1" vertex="1">
          <mxGeometry x="580" y="144.42" width="70" height="59.91" as="geometry" />
        </mxCell>
        <mxCell id="ypLEXeXIEpCvjVQCxORQ-26" style="edgeStyle=orthogonalEdgeStyle;rounded=0;orthogonalLoop=1;jettySize=auto;html=1;entryX=0.5;entryY=0;entryDx=0;entryDy=0;" parent="1" source="ypLEXeXIEpCvjVQCxORQ-27" target="ypLEXeXIEpCvjVQCxORQ-29" edge="1">
          <mxGeometry relative="1" as="geometry" />
        </mxCell>
        <mxCell id="ypLEXeXIEpCvjVQCxORQ-27" value="" style="shape=image;verticalLabelPosition=bottom;labelBackgroundColor=default;verticalAlign=top;aspect=fixed;imageAspect=0;image=https://www.bouncebacktech.com/assets/img/amzec2logo.png;" parent="1" vertex="1">
          <mxGeometry x="578.5" y="477.78999999999996" width="75" height="96.43" as="geometry" />
        </mxCell>
        <mxCell id="ypLEXeXIEpCvjVQCxORQ-28" value="" style="rounded=1;whiteSpace=wrap;html=1;" parent="1" vertex="1">
          <mxGeometry x="293.36" y="470" width="220" height="120" as="geometry" />
        </mxCell>
        <mxCell id="ypLEXeXIEpCvjVQCxORQ-29" value="" style="shape=image;imageAspect=0;aspect=fixed;verticalLabelPosition=bottom;verticalAlign=top;image=https://icon-library.com/images/web-apps-icon/web-apps-icon-17.jpg;" parent="1" vertex="1">
          <mxGeometry x="588" y="630" width="56" height="56" as="geometry" />
        </mxCell>
        <mxCell id="ypLEXeXIEpCvjVQCxORQ-30" style="edgeStyle=orthogonalEdgeStyle;rounded=0;orthogonalLoop=1;jettySize=auto;html=1;entryX=1;entryY=0.5;entryDx=0;entryDy=0;" parent="1" source="ypLEXeXIEpCvjVQCxORQ-27" target="ypLEXeXIEpCvjVQCxORQ-41" edge="1">
          <mxGeometry relative="1" as="geometry" />
        </mxCell>
        <mxCell id="ypLEXeXIEpCvjVQCxORQ-31" value="" style="edgeStyle=orthogonalEdgeStyle;rounded=0;orthogonalLoop=1;jettySize=auto;html=1;entryX=0.5;entryY=0;entryDx=0;entryDy=0;entryPerimeter=0;" parent="1" source="ypLEXeXIEpCvjVQCxORQ-25" target="ypLEXeXIEpCvjVQCxORQ-45" edge="1">
          <mxGeometry relative="1" as="geometry">
            <mxPoint x="615" y="204" as="sourcePoint" />
            <mxPoint x="615" y="294" as="targetPoint" />
          </mxGeometry>
        </mxCell>
        <mxCell id="ypLEXeXIEpCvjVQCxORQ-32" value="Push Docker image&lt;br&gt;&amp;nbsp;to Amazon ECR" style="edgeLabel;html=1;align=center;verticalAlign=middle;resizable=0;points=[];" parent="ypLEXeXIEpCvjVQCxORQ-31" vertex="1" connectable="0">
          <mxGeometry x="-0.0048" y="-1" relative="1" as="geometry">
            <mxPoint x="-1" y="1" as="offset" />
          </mxGeometry>
        </mxCell>
        <mxCell id="ypLEXeXIEpCvjVQCxORQ-33" value="" style="shape=image;imageAspect=0;aspect=fixed;verticalLabelPosition=bottom;verticalAlign=top;image=https://cdn.freebiesupply.com/logos/large/2x/flask-logo-png-transparent.png;" parent="1" vertex="1">
          <mxGeometry x="459.75" y="147.08" width="42.5" height="54.57" as="geometry" />
        </mxCell>
        <mxCell id="ypLEXeXIEpCvjVQCxORQ-34" value="&lt;font style=&quot;font-size: 10px;&quot;&gt;Web App&lt;/font&gt;" style="text;strokeColor=none;align=center;fillColor=none;html=1;verticalAlign=middle;whiteSpace=wrap;rounded=0;" parent="1" vertex="1">
          <mxGeometry x="587" y="686" width="60" height="14" as="geometry" />
        </mxCell>
        <mxCell id="ypLEXeXIEpCvjVQCxORQ-35" style="edgeStyle=orthogonalEdgeStyle;rounded=0;orthogonalLoop=1;jettySize=auto;html=1;entryX=0.5;entryY=0;entryDx=0;entryDy=0;" parent="1" target="ypLEXeXIEpCvjVQCxORQ-17" edge="1">
          <mxGeometry relative="1" as="geometry">
            <Array as="points">
              <mxPoint x="200" y="130" />
              <mxPoint x="280" y="130" />
            </Array>
            <mxPoint x="200" y="93.82000000000005" as="sourcePoint" />
          </mxGeometry>
        </mxCell>
        <mxCell id="ypLEXeXIEpCvjVQCxORQ-36" style="edgeStyle=orthogonalEdgeStyle;rounded=0;orthogonalLoop=1;jettySize=auto;html=1;exitX=0.5;exitY=0;exitDx=0;exitDy=0;" parent="1" source="ypLEXeXIEpCvjVQCxORQ-38" target="ypLEXeXIEpCvjVQCxORQ-52" edge="1">
          <mxGeometry relative="1" as="geometry" />
        </mxCell>
        <mxCell id="ypLEXeXIEpCvjVQCxORQ-37" value="Store Model Artificats" style="edgeLabel;html=1;align=center;verticalAlign=middle;resizable=0;points=[];" parent="ypLEXeXIEpCvjVQCxORQ-36" vertex="1" connectable="0">
          <mxGeometry x="0.0589" y="4" relative="1" as="geometry">
            <mxPoint x="-2" y="4" as="offset" />
          </mxGeometry>
        </mxCell>
        <mxCell id="ypLEXeXIEpCvjVQCxORQ-38" value="" style="shape=image;verticalLabelPosition=bottom;labelBackgroundColor=default;verticalAlign=top;aspect=fixed;imageAspect=0;image=https://www.mlflow.org/docs/1.24.0/_static/MLflow-logo-final-black.png;" parent="1" vertex="1">
          <mxGeometry x="239.99999999999997" y="53.309999999999995" width="80" height="30.83" as="geometry" />
        </mxCell>
        <mxCell id="ypLEXeXIEpCvjVQCxORQ-39" value="" style="shape=image;verticalLabelPosition=bottom;labelBackgroundColor=default;verticalAlign=top;aspect=fixed;imageAspect=0;image=https://static-00.iconduck.com/assets.00/file-type-dvc-icon-512x293-js3het8o.png;" parent="1" vertex="1">
          <mxGeometry x="174.04" y="56.69" width="55.96" height="32.03" as="geometry" />
        </mxCell>
        <mxCell id="ypLEXeXIEpCvjVQCxORQ-40" value="" style="group" parent="1" vertex="1" connectable="0">
          <mxGeometry x="293.36" y="491" width="195.31" height="118.77999999999997" as="geometry" />
        </mxCell>
        <mxCell id="ypLEXeXIEpCvjVQCxORQ-41" value="" style="shape=image;verticalLabelPosition=bottom;labelBackgroundColor=default;verticalAlign=top;aspect=fixed;imageAspect=0;image=https://upload.wikimedia.org/wikipedia/commons/thumb/3/38/Prometheus_software_logo.svg/2066px-Prometheus_software_logo.svg.png;" parent="ypLEXeXIEpCvjVQCxORQ-40" vertex="1">
          <mxGeometry x="144.3" y="9.70999999999998" width="51.01" height="50.58" as="geometry" />
        </mxCell>
        <mxCell id="ypLEXeXIEpCvjVQCxORQ-42" value="" style="shape=image;verticalLabelPosition=bottom;labelBackgroundColor=default;verticalAlign=top;aspect=fixed;imageAspect=0;image=https://upload.wikimedia.org/wikipedia/commons/thumb/a/a1/Grafana_logo.svg/1200px-Grafana_logo.svg.png;" parent="ypLEXeXIEpCvjVQCxORQ-40" vertex="1">
          <mxGeometry x="10.699999999999989" width="68.6" height="70" as="geometry" />
        </mxCell>
        <mxCell id="ypLEXeXIEpCvjVQCxORQ-43" style="edgeStyle=orthogonalEdgeStyle;rounded=0;orthogonalLoop=1;jettySize=auto;html=1;entryX=1;entryY=0.5;entryDx=0;entryDy=0;" parent="ypLEXeXIEpCvjVQCxORQ-40" source="ypLEXeXIEpCvjVQCxORQ-41" target="ypLEXeXIEpCvjVQCxORQ-42" edge="1">
          <mxGeometry relative="1" as="geometry" />
        </mxCell>
        <mxCell id="ypLEXeXIEpCvjVQCxORQ-44" value="&lt;b&gt;Monitoring and Logging&lt;/b&gt;" style="text;strokeColor=none;align=center;fillColor=none;html=1;verticalAlign=middle;whiteSpace=wrap;rounded=0;" parent="ypLEXeXIEpCvjVQCxORQ-40" vertex="1">
          <mxGeometry y="98.77999999999997" width="149.3" height="20" as="geometry" />
        </mxCell>
        <mxCell id="ypLEXeXIEpCvjVQCxORQ-45" value="" style="sketch=0;points=[[0,0,0],[0.25,0,0],[0.5,0,0],[0.75,0,0],[1,0,0],[0,1,0],[0.25,1,0],[0.5,1,0],[0.75,1,0],[1,1,0],[0,0.25,0],[0,0.5,0],[0,0.75,0],[1,0.25,0],[1,0.5,0],[1,0.75,0]];outlineConnect=0;fontColor=#232F3E;gradientColor=#F78E04;gradientDirection=north;fillColor=#D05C17;strokeColor=#ffffff;dashed=0;verticalLabelPosition=bottom;verticalAlign=top;align=center;html=1;fontSize=12;fontStyle=0;aspect=fixed;shape=mxgraph.aws4.resourceIcon;resIcon=mxgraph.aws4.ecr;" parent="1" vertex="1">
          <mxGeometry x="587" y="350" width="58" height="58" as="geometry" />
        </mxCell>
        <mxCell id="ypLEXeXIEpCvjVQCxORQ-46" value="" style="sketch=0;outlineConnect=0;fontColor=#232F3E;gradientColor=none;fillColor=#D45B07;strokeColor=none;dashed=0;verticalLabelPosition=bottom;verticalAlign=top;align=center;html=1;fontSize=12;fontStyle=0;aspect=fixed;pointerEvents=1;shape=mxgraph.aws4.container_registry_image;" parent="1" vertex="1">
          <mxGeometry x="670" y="264.5" width="28" height="28" as="geometry" />
        </mxCell>
        <mxCell id="ypLEXeXIEpCvjVQCxORQ-47" style="edgeStyle=orthogonalEdgeStyle;rounded=0;orthogonalLoop=1;jettySize=auto;html=1;exitX=0.5;exitY=1;exitDx=0;exitDy=0;entryX=0.5;entryY=0;entryDx=0;entryDy=0;" parent="1" source="ypLEXeXIEpCvjVQCxORQ-48" target="ypLEXeXIEpCvjVQCxORQ-27" edge="1">
          <mxGeometry relative="1" as="geometry" />
        </mxCell>
        <mxCell id="ypLEXeXIEpCvjVQCxORQ-48" value="&lt;b&gt;Amazon ECR&lt;/b&gt;" style="text;html=1;strokeColor=none;fillColor=none;align=center;verticalAlign=middle;whiteSpace=wrap;rounded=0;" parent="1" vertex="1">
          <mxGeometry x="586" y="408" width="60" height="30" as="geometry" />
        </mxCell>
        <mxCell id="ypLEXeXIEpCvjVQCxORQ-49" value="" style="group" parent="1" vertex="1" connectable="0">
          <mxGeometry x="30" y="690" width="121.16000000000001" height="46" as="geometry" />
        </mxCell>
        <mxCell id="ypLEXeXIEpCvjVQCxORQ-50" value="&lt;font style=&quot;font-size: 10px;&quot;&gt;&lt;b&gt;CI/CD Pipelines&lt;/b&gt;&lt;/font&gt;" style="text;strokeColor=none;align=center;fillColor=none;html=1;verticalAlign=middle;whiteSpace=wrap;rounded=0;" parent="ypLEXeXIEpCvjVQCxORQ-49" vertex="1">
          <mxGeometry x="41.16" y="26" width="80" height="20" as="geometry" />
        </mxCell>
        <mxCell id="ypLEXeXIEpCvjVQCxORQ-51" value="" style="shape=image;verticalLabelPosition=bottom;labelBackgroundColor=default;verticalAlign=top;aspect=fixed;imageAspect=0;image=https://secrethub.io/img/gitlab-ci.png;" parent="1" vertex="1">
          <mxGeometry x="30" y="686" width="41.16" height="46" as="geometry" />
        </mxCell>
        <mxCell id="ypLEXeXIEpCvjVQCxORQ-52" value="" style="sketch=0;points=[[0,0,0],[0.25,0,0],[0.5,0,0],[0.75,0,0],[1,0,0],[0,1,0],[0.25,1,0],[0.5,1,0],[0.75,1,0],[1,1,0],[0,0.25,0],[0,0.5,0],[0,0.75,0],[1,0.25,0],[1,0.5,0],[1,0.75,0]];outlineConnect=0;fontColor=#232F3E;gradientColor=#60A337;gradientDirection=north;fillColor=#277116;strokeColor=#ffffff;dashed=0;verticalLabelPosition=bottom;verticalAlign=top;align=center;html=1;fontSize=12;fontStyle=0;aspect=fixed;shape=mxgraph.aws4.resourceIcon;resIcon=mxgraph.aws4.s3;" parent="1" vertex="1">
          <mxGeometry x="580" y="2.69" width="54" height="54" as="geometry" />
        </mxCell>
        <mxCell id="ypLEXeXIEpCvjVQCxORQ-53" value="&lt;b&gt;Amazon S3&lt;/b&gt;" style="text;html=1;strokeColor=none;fillColor=none;align=center;verticalAlign=middle;whiteSpace=wrap;rounded=0;" parent="1" vertex="1">
          <mxGeometry x="574" y="54.14" width="76" height="30" as="geometry" />
        </mxCell>
        <mxCell id="JoFa_ZvAv2UG-xMNAbuD-1" value="" style="rounded=0;whiteSpace=wrap;html=1;" vertex="1" parent="1">
          <mxGeometry x="30" y="-300" width="700" height="1010" as="geometry" />
        </mxCell>
        <mxCell id="JoFa_ZvAv2UG-xMNAbuD-2" value="" style="rounded=1;whiteSpace=wrap;html=1;" vertex="1" parent="1">
          <mxGeometry x="40" y="114.37" width="370" height="135.63" as="geometry" />
        </mxCell>
        <mxCell id="JoFa_ZvAv2UG-xMNAbuD-3" value="" style="sketch=0;outlineConnect=0;fontColor=#232F3E;gradientColor=none;fillColor=#232F3D;strokeColor=none;dashed=0;verticalLabelPosition=bottom;verticalAlign=top;align=center;html=1;fontSize=12;fontStyle=0;aspect=fixed;pointerEvents=1;shape=mxgraph.aws4.folder;" vertex="1" parent="1">
          <mxGeometry x="50" y="154.5" width="43.94" height="40" as="geometry" />
        </mxCell>
        <mxCell id="JoFa_ZvAv2UG-xMNAbuD-4" style="edgeStyle=orthogonalEdgeStyle;rounded=0;orthogonalLoop=1;jettySize=auto;html=1;entryX=0;entryY=0.5;entryDx=0;entryDy=0;" edge="1" parent="1" source="JoFa_ZvAv2UG-xMNAbuD-5" target="JoFa_ZvAv2UG-xMNAbuD-17">
          <mxGeometry relative="1" as="geometry" />
        </mxCell>
        <mxCell id="JoFa_ZvAv2UG-xMNAbuD-5" value="" style="whiteSpace=wrap;html=1;shape=mxgraph.basic.document" vertex="1" parent="1">
          <mxGeometry x="180" y="151" width="40" height="47" as="geometry" />
        </mxCell>
        <mxCell id="JoFa_ZvAv2UG-xMNAbuD-6" value="&lt;font style=&quot;font-size: 10px;&quot;&gt;Model developement&lt;/font&gt;" style="text;strokeColor=none;align=center;fillColor=none;html=1;verticalAlign=middle;whiteSpace=wrap;rounded=0;" vertex="1" parent="1">
          <mxGeometry x="170" y="200" width="60" height="30" as="geometry" />
        </mxCell>
        <mxCell id="JoFa_ZvAv2UG-xMNAbuD-7" style="edgeStyle=orthogonalEdgeStyle;rounded=0;orthogonalLoop=1;jettySize=auto;html=1;" edge="1" parent="1" source="JoFa_ZvAv2UG-xMNAbuD-9" target="JoFa_ZvAv2UG-xMNAbuD-20">
          <mxGeometry relative="1" as="geometry" />
        </mxCell>
        <mxCell id="JoFa_ZvAv2UG-xMNAbuD-8" style="edgeStyle=orthogonalEdgeStyle;rounded=0;orthogonalLoop=1;jettySize=auto;html=1;entryX=0.5;entryY=0;entryDx=0;entryDy=0;" edge="1" parent="1" source="JoFa_ZvAv2UG-xMNAbuD-9" target="JoFa_ZvAv2UG-xMNAbuD-33">
          <mxGeometry relative="1" as="geometry" />
        </mxCell>
        <mxCell id="JoFa_ZvAv2UG-xMNAbuD-9" value="" style="shape=image;imageAspect=0;aspect=fixed;verticalLabelPosition=bottom;verticalAlign=top;image=https://upload.wikimedia.org/wikipedia/commons/thumb/b/ba/Pytest_logo.svg/2048px-Pytest_logo.svg.png;" vertex="1" parent="1">
          <mxGeometry x="345" y="48.72" width="40" height="40" as="geometry" />
        </mxCell>
        <mxCell id="JoFa_ZvAv2UG-xMNAbuD-10" value="" style="shape=image;imageAspect=0;aspect=fixed;verticalLabelPosition=bottom;verticalAlign=top;image=https://upload.wikimedia.org/wikipedia/commons/thumb/c/c3/Python-logo-notext.svg/1869px-Python-logo-notext.svg.png;" vertex="1" parent="1">
          <mxGeometry x="210.7" y="188.16" width="16.3" height="17.84" as="geometry" />
        </mxCell>
        <mxCell id="JoFa_ZvAv2UG-xMNAbuD-11" value="" style="shape=image;imageAspect=0;aspect=fixed;verticalLabelPosition=bottom;verticalAlign=top;image=https://upload.wikimedia.org/wikipedia/commons/thumb/3/38/Jupyter_logo.svg/1200px-Jupyter_logo.svg.png;" vertex="1" parent="1">
          <mxGeometry x="185" y="157" width="30" height="34.74" as="geometry" />
        </mxCell>
        <mxCell id="JoFa_ZvAv2UG-xMNAbuD-12" value="" style="endArrow=classic;html=1;rounded=0;entryX=0;entryY=0.5;entryDx=0;entryDy=0;entryPerimeter=0;" edge="1" parent="1" source="JoFa_ZvAv2UG-xMNAbuD-14" target="JoFa_ZvAv2UG-xMNAbuD-5">
          <mxGeometry width="50" height="50" relative="1" as="geometry">
            <mxPoint x="180" y="200" as="sourcePoint" />
            <mxPoint x="230" y="150" as="targetPoint" />
          </mxGeometry>
        </mxCell>
        <mxCell id="JoFa_ZvAv2UG-xMNAbuD-13" value="&lt;font style=&quot;font-size: 10px;&quot;&gt;DATA&lt;/font&gt;" style="text;strokeColor=none;align=center;fillColor=none;html=1;verticalAlign=middle;whiteSpace=wrap;rounded=0;" vertex="1" parent="1">
          <mxGeometry x="52.95" y="171.11" width="38.03" height="13.26" as="geometry" />
        </mxCell>
        <mxCell id="JoFa_ZvAv2UG-xMNAbuD-14" value="&lt;font style=&quot;font-size: 10px;&quot;&gt;Preprocess&lt;/font&gt;" style="text;strokeColor=none;align=center;fillColor=none;html=1;verticalAlign=middle;whiteSpace=wrap;rounded=0;" vertex="1" parent="1">
          <mxGeometry x="110" y="164.37" width="50" height="20" as="geometry" />
        </mxCell>
        <mxCell id="JoFa_ZvAv2UG-xMNAbuD-15" value="" style="endArrow=none;html=1;rounded=0;entryX=0;entryY=0.5;entryDx=0;entryDy=0;" edge="1" parent="1" source="JoFa_ZvAv2UG-xMNAbuD-3" target="JoFa_ZvAv2UG-xMNAbuD-14">
          <mxGeometry width="50" height="50" relative="1" as="geometry">
            <mxPoint x="150" y="260" as="sourcePoint" />
            <mxPoint x="210" y="230" as="targetPoint" />
          </mxGeometry>
        </mxCell>
        <mxCell id="JoFa_ZvAv2UG-xMNAbuD-16" style="edgeStyle=orthogonalEdgeStyle;rounded=0;orthogonalLoop=1;jettySize=auto;html=1;entryX=0;entryY=0.5;entryDx=0;entryDy=0;" edge="1" parent="1" source="JoFa_ZvAv2UG-xMNAbuD-17" target="JoFa_ZvAv2UG-xMNAbuD-20">
          <mxGeometry relative="1" as="geometry" />
        </mxCell>
        <mxCell id="JoFa_ZvAv2UG-xMNAbuD-17" value="&lt;font style=&quot;font-size: 10px;&quot;&gt;Training&lt;/font&gt;" style="text;strokeColor=none;align=center;fillColor=none;html=1;verticalAlign=middle;whiteSpace=wrap;rounded=0;" vertex="1" parent="1">
          <mxGeometry x="260" y="164.5" width="40" height="20" as="geometry" />
        </mxCell>
        <mxCell id="JoFa_ZvAv2UG-xMNAbuD-18" style="edgeStyle=orthogonalEdgeStyle;rounded=0;orthogonalLoop=1;jettySize=auto;html=1;entryX=0.5;entryY=0;entryDx=0;entryDy=0;" edge="1" parent="1" target="JoFa_ZvAv2UG-xMNAbuD-17">
          <mxGeometry relative="1" as="geometry">
            <mxPoint x="280" y="77.44000000000005" as="sourcePoint" />
          </mxGeometry>
        </mxCell>
        <mxCell id="JoFa_ZvAv2UG-xMNAbuD-19" style="edgeStyle=orthogonalEdgeStyle;rounded=0;orthogonalLoop=1;jettySize=auto;html=1;entryX=0;entryY=0.5;entryDx=0;entryDy=0;" edge="1" parent="1" source="JoFa_ZvAv2UG-xMNAbuD-20" target="JoFa_ZvAv2UG-xMNAbuD-33">
          <mxGeometry relative="1" as="geometry" />
        </mxCell>
        <mxCell id="JoFa_ZvAv2UG-xMNAbuD-20" value="" style="shape=image;imageAspect=0;aspect=fixed;verticalLabelPosition=bottom;verticalAlign=top;image=https://upload.wikimedia.org/wikipedia/commons/d/d5/Hey_Machine_Learning_Logo.png;" vertex="1" parent="1">
          <mxGeometry x="340" y="150" width="50" height="50" as="geometry" />
        </mxCell>
        <mxCell id="JoFa_ZvAv2UG-xMNAbuD-21" value="&lt;font style=&quot;font-size: 10px;&quot;&gt;Model&amp;nbsp;&lt;/font&gt;" style="text;strokeColor=none;align=center;fillColor=none;html=1;verticalAlign=middle;whiteSpace=wrap;rounded=0;" vertex="1" parent="1">
          <mxGeometry x="337" y="208" width="60" height="14" as="geometry" />
        </mxCell>
        <mxCell id="JoFa_ZvAv2UG-xMNAbuD-22" value="" style="shape=image;imageAspect=0;aspect=fixed;verticalLabelPosition=bottom;verticalAlign=top;image=https://git-scm.com/images/logos/downloads/Git-Icon-1788C.png;" vertex="1" parent="1">
          <mxGeometry x="57.47" y="235.5" width="29" height="29" as="geometry" />
        </mxCell>
        <mxCell id="JoFa_ZvAv2UG-xMNAbuD-23" value="&lt;font style=&quot;font-size: 10px;&quot;&gt;&lt;b&gt;Local Git Repo&lt;/b&gt;&lt;/font&gt;" style="text;strokeColor=none;align=center;fillColor=none;html=1;verticalAlign=middle;whiteSpace=wrap;rounded=0;" vertex="1" parent="1">
          <mxGeometry x="86.47" y="250" width="80" height="20" as="geometry" />
        </mxCell>
        <mxCell id="JoFa_ZvAv2UG-xMNAbuD-24" style="edgeStyle=orthogonalEdgeStyle;rounded=0;orthogonalLoop=1;jettySize=auto;html=1;entryX=0;entryY=0.5;entryDx=0;entryDy=0;" edge="1" parent="1" source="JoFa_ZvAv2UG-xMNAbuD-33" target="JoFa_ZvAv2UG-xMNAbuD-25">
          <mxGeometry relative="1" as="geometry" />
        </mxCell>
        <mxCell id="JoFa_ZvAv2UG-xMNAbuD-25" value="" style="shape=image;verticalLabelPosition=bottom;labelBackgroundColor=default;verticalAlign=top;aspect=fixed;imageAspect=0;image=https://www.docker.com/wp-content/uploads/2022/03/vertical-logo-monochromatic.png;" vertex="1" parent="1">
          <mxGeometry x="580" y="144.42" width="70" height="59.91" as="geometry" />
        </mxCell>
        <mxCell id="JoFa_ZvAv2UG-xMNAbuD-26" style="edgeStyle=orthogonalEdgeStyle;rounded=0;orthogonalLoop=1;jettySize=auto;html=1;entryX=0.5;entryY=0;entryDx=0;entryDy=0;" edge="1" parent="1" source="JoFa_ZvAv2UG-xMNAbuD-27" target="JoFa_ZvAv2UG-xMNAbuD-29">
          <mxGeometry relative="1" as="geometry" />
        </mxCell>
        <mxCell id="JoFa_ZvAv2UG-xMNAbuD-27" value="" style="shape=image;verticalLabelPosition=bottom;labelBackgroundColor=default;verticalAlign=top;aspect=fixed;imageAspect=0;image=https://www.bouncebacktech.com/assets/img/amzec2logo.png;" vertex="1" parent="1">
          <mxGeometry x="578.5" y="477.78999999999996" width="75" height="96.43" as="geometry" />
        </mxCell>
        <mxCell id="JoFa_ZvAv2UG-xMNAbuD-28" value="" style="rounded=1;whiteSpace=wrap;html=1;" vertex="1" parent="1">
          <mxGeometry x="293.36" y="470" width="220" height="120" as="geometry" />
        </mxCell>
        <mxCell id="JoFa_ZvAv2UG-xMNAbuD-29" value="" style="shape=image;imageAspect=0;aspect=fixed;verticalLabelPosition=bottom;verticalAlign=top;image=https://icon-library.com/images/web-apps-icon/web-apps-icon-17.jpg;" vertex="1" parent="1">
          <mxGeometry x="588" y="630" width="56" height="56" as="geometry" />
        </mxCell>
        <mxCell id="JoFa_ZvAv2UG-xMNAbuD-30" style="edgeStyle=orthogonalEdgeStyle;rounded=0;orthogonalLoop=1;jettySize=auto;html=1;entryX=1;entryY=0.5;entryDx=0;entryDy=0;" edge="1" parent="1" source="JoFa_ZvAv2UG-xMNAbuD-27" target="JoFa_ZvAv2UG-xMNAbuD-41">
          <mxGeometry relative="1" as="geometry" />
        </mxCell>
        <mxCell id="JoFa_ZvAv2UG-xMNAbuD-31" value="" style="edgeStyle=orthogonalEdgeStyle;rounded=0;orthogonalLoop=1;jettySize=auto;html=1;entryX=0.5;entryY=0;entryDx=0;entryDy=0;entryPerimeter=0;" edge="1" parent="1" source="JoFa_ZvAv2UG-xMNAbuD-25" target="JoFa_ZvAv2UG-xMNAbuD-45">
          <mxGeometry relative="1" as="geometry">
            <mxPoint x="615" y="204" as="sourcePoint" />
            <mxPoint x="615" y="294" as="targetPoint" />
          </mxGeometry>
        </mxCell>
        <mxCell id="JoFa_ZvAv2UG-xMNAbuD-32" value="Push Docker image&lt;br&gt;&amp;nbsp;to Amazon ECR" style="edgeLabel;html=1;align=center;verticalAlign=middle;resizable=0;points=[];" vertex="1" connectable="0" parent="JoFa_ZvAv2UG-xMNAbuD-31">
          <mxGeometry x="-0.0048" y="-1" relative="1" as="geometry">
            <mxPoint x="-1" y="1" as="offset" />
          </mxGeometry>
        </mxCell>
        <mxCell id="JoFa_ZvAv2UG-xMNAbuD-33" value="" style="shape=image;imageAspect=0;aspect=fixed;verticalLabelPosition=bottom;verticalAlign=top;image=https://cdn.freebiesupply.com/logos/large/2x/flask-logo-png-transparent.png;" vertex="1" parent="1">
          <mxGeometry x="459.75" y="147.08" width="42.5" height="54.57" as="geometry" />
        </mxCell>
        <mxCell id="JoFa_ZvAv2UG-xMNAbuD-34" value="&lt;font style=&quot;font-size: 10px;&quot;&gt;Web App&lt;/font&gt;" style="text;strokeColor=none;align=center;fillColor=none;html=1;verticalAlign=middle;whiteSpace=wrap;rounded=0;" vertex="1" parent="1">
          <mxGeometry x="587" y="686" width="60" height="14" as="geometry" />
        </mxCell>
        <mxCell id="JoFa_ZvAv2UG-xMNAbuD-35" style="edgeStyle=orthogonalEdgeStyle;rounded=0;orthogonalLoop=1;jettySize=auto;html=1;entryX=0.5;entryY=0;entryDx=0;entryDy=0;" edge="1" parent="1" target="JoFa_ZvAv2UG-xMNAbuD-17">
          <mxGeometry relative="1" as="geometry">
            <Array as="points">
              <mxPoint x="200" y="130" />
              <mxPoint x="280" y="130" />
            </Array>
            <mxPoint x="200" y="93.82000000000005" as="sourcePoint" />
          </mxGeometry>
        </mxCell>
        <mxCell id="JoFa_ZvAv2UG-xMNAbuD-36" style="edgeStyle=orthogonalEdgeStyle;rounded=0;orthogonalLoop=1;jettySize=auto;html=1;exitX=0.5;exitY=0;exitDx=0;exitDy=0;entryX=0;entryY=0.5;entryDx=0;entryDy=0;" edge="1" parent="1" source="JoFa_ZvAv2UG-xMNAbuD-38" target="JoFa_ZvAv2UG-xMNAbuD-52">
          <mxGeometry relative="1" as="geometry">
            <mxPoint x="560" y="30" as="targetPoint" />
          </mxGeometry>
        </mxCell>
        <mxCell id="JoFa_ZvAv2UG-xMNAbuD-37" value="Store Model Artificats" style="edgeLabel;html=1;align=center;verticalAlign=middle;resizable=0;points=[];" vertex="1" connectable="0" parent="JoFa_ZvAv2UG-xMNAbuD-36">
          <mxGeometry x="0.0589" y="4" relative="1" as="geometry">
            <mxPoint x="-2" y="4" as="offset" />
          </mxGeometry>
        </mxCell>
        <mxCell id="JoFa_ZvAv2UG-xMNAbuD-38" value="" style="shape=image;verticalLabelPosition=bottom;labelBackgroundColor=default;verticalAlign=top;aspect=fixed;imageAspect=0;image=https://www.mlflow.org/docs/1.24.0/_static/MLflow-logo-final-black.png;" vertex="1" parent="1">
          <mxGeometry x="239.99999999999997" y="53.309999999999995" width="80" height="30.83" as="geometry" />
        </mxCell>
        <mxCell id="JoFa_ZvAv2UG-xMNAbuD-39" value="" style="shape=image;verticalLabelPosition=bottom;labelBackgroundColor=default;verticalAlign=top;aspect=fixed;imageAspect=0;image=https://static-00.iconduck.com/assets.00/file-type-dvc-icon-512x293-js3het8o.png;" vertex="1" parent="1">
          <mxGeometry x="174.04" y="56.69" width="55.96" height="32.03" as="geometry" />
        </mxCell>
        <mxCell id="JoFa_ZvAv2UG-xMNAbuD-40" value="" style="group" vertex="1" connectable="0" parent="1">
          <mxGeometry x="293.36" y="491" width="195.31" height="118.77999999999997" as="geometry" />
        </mxCell>
        <mxCell id="JoFa_ZvAv2UG-xMNAbuD-41" value="" style="shape=image;verticalLabelPosition=bottom;labelBackgroundColor=default;verticalAlign=top;aspect=fixed;imageAspect=0;image=https://upload.wikimedia.org/wikipedia/commons/thumb/3/38/Prometheus_software_logo.svg/2066px-Prometheus_software_logo.svg.png;" vertex="1" parent="JoFa_ZvAv2UG-xMNAbuD-40">
          <mxGeometry x="144.3" y="9.70999999999998" width="51.01" height="50.58" as="geometry" />
        </mxCell>
        <mxCell id="JoFa_ZvAv2UG-xMNAbuD-42" value="" style="shape=image;verticalLabelPosition=bottom;labelBackgroundColor=default;verticalAlign=top;aspect=fixed;imageAspect=0;image=https://upload.wikimedia.org/wikipedia/commons/thumb/a/a1/Grafana_logo.svg/1200px-Grafana_logo.svg.png;" vertex="1" parent="JoFa_ZvAv2UG-xMNAbuD-40">
          <mxGeometry x="10.699999999999989" width="68.6" height="70" as="geometry" />
        </mxCell>
        <mxCell id="JoFa_ZvAv2UG-xMNAbuD-43" style="edgeStyle=orthogonalEdgeStyle;rounded=0;orthogonalLoop=1;jettySize=auto;html=1;entryX=1;entryY=0.5;entryDx=0;entryDy=0;" edge="1" parent="JoFa_ZvAv2UG-xMNAbuD-40" source="JoFa_ZvAv2UG-xMNAbuD-41" target="JoFa_ZvAv2UG-xMNAbuD-42">
          <mxGeometry relative="1" as="geometry" />
        </mxCell>
        <mxCell id="JoFa_ZvAv2UG-xMNAbuD-44" value="&lt;b&gt;Monitoring and Logging&lt;/b&gt;" style="text;strokeColor=none;align=center;fillColor=none;html=1;verticalAlign=middle;whiteSpace=wrap;rounded=0;" vertex="1" parent="JoFa_ZvAv2UG-xMNAbuD-40">
          <mxGeometry y="98.77999999999997" width="149.3" height="20" as="geometry" />
        </mxCell>
        <mxCell id="JoFa_ZvAv2UG-xMNAbuD-45" value="" style="sketch=0;points=[[0,0,0],[0.25,0,0],[0.5,0,0],[0.75,0,0],[1,0,0],[0,1,0],[0.25,1,0],[0.5,1,0],[0.75,1,0],[1,1,0],[0,0.25,0],[0,0.5,0],[0,0.75,0],[1,0.25,0],[1,0.5,0],[1,0.75,0]];outlineConnect=0;fontColor=#232F3E;gradientColor=#F78E04;gradientDirection=north;fillColor=#D05C17;strokeColor=#ffffff;dashed=0;verticalLabelPosition=bottom;verticalAlign=top;align=center;html=1;fontSize=12;fontStyle=0;aspect=fixed;shape=mxgraph.aws4.resourceIcon;resIcon=mxgraph.aws4.ecr;" vertex="1" parent="1">
          <mxGeometry x="587" y="350" width="58" height="58" as="geometry" />
        </mxCell>
        <mxCell id="JoFa_ZvAv2UG-xMNAbuD-46" value="" style="sketch=0;outlineConnect=0;fontColor=#232F3E;gradientColor=none;fillColor=#D45B07;strokeColor=none;dashed=0;verticalLabelPosition=bottom;verticalAlign=top;align=center;html=1;fontSize=12;fontStyle=0;aspect=fixed;pointerEvents=1;shape=mxgraph.aws4.container_registry_image;" vertex="1" parent="1">
          <mxGeometry x="670" y="264.5" width="28" height="28" as="geometry" />
        </mxCell>
        <mxCell id="JoFa_ZvAv2UG-xMNAbuD-47" style="edgeStyle=orthogonalEdgeStyle;rounded=0;orthogonalLoop=1;jettySize=auto;html=1;exitX=0.5;exitY=1;exitDx=0;exitDy=0;entryX=0.5;entryY=0;entryDx=0;entryDy=0;" edge="1" parent="1" source="JoFa_ZvAv2UG-xMNAbuD-48" target="JoFa_ZvAv2UG-xMNAbuD-27">
          <mxGeometry relative="1" as="geometry" />
        </mxCell>
        <mxCell id="JoFa_ZvAv2UG-xMNAbuD-48" value="&lt;b&gt;Amazon ECR&lt;/b&gt;" style="text;html=1;strokeColor=none;fillColor=none;align=center;verticalAlign=middle;whiteSpace=wrap;rounded=0;" vertex="1" parent="1">
          <mxGeometry x="586" y="408" width="60" height="30" as="geometry" />
        </mxCell>
        <mxCell id="JoFa_ZvAv2UG-xMNAbuD-49" value="" style="group" vertex="1" connectable="0" parent="1">
          <mxGeometry x="30" y="690" width="121.16000000000001" height="46" as="geometry" />
        </mxCell>
        <mxCell id="JoFa_ZvAv2UG-xMNAbuD-50" value="&lt;font style=&quot;font-size: 10px;&quot;&gt;&lt;b&gt;CI/CD Pipelines&lt;/b&gt;&lt;/font&gt;" style="text;strokeColor=none;align=center;fillColor=none;html=1;verticalAlign=middle;whiteSpace=wrap;rounded=0;" vertex="1" parent="JoFa_ZvAv2UG-xMNAbuD-49">
          <mxGeometry x="41.16" y="26" width="80" height="20" as="geometry" />
        </mxCell>
        <mxCell id="JoFa_ZvAv2UG-xMNAbuD-51" value="" style="shape=image;verticalLabelPosition=bottom;labelBackgroundColor=default;verticalAlign=top;aspect=fixed;imageAspect=0;image=https://secrethub.io/img/gitlab-ci.png;" vertex="1" parent="1">
          <mxGeometry x="30" y="686" width="41.16" height="46" as="geometry" />
        </mxCell>
        <mxCell id="JoFa_ZvAv2UG-xMNAbuD-52" value="" style="shape=image;verticalLabelPosition=bottom;labelBackgroundColor=default;verticalAlign=top;aspect=fixed;imageAspect=0;image=https://logos-world.net/wp-content/uploads/2022/11/Snowflake-Symbol.png;" vertex="1" parent="1">
          <mxGeometry x="580" y="10" width="93.36" height="52.52" as="geometry" />
        </mxCell>
        <mxCell id="JoFa_ZvAv2UG-xMNAbuD-53" value="" style="shape=image;verticalLabelPosition=bottom;labelBackgroundColor=default;verticalAlign=top;aspect=fixed;imageAspect=0;image=https://seeklogo.com/images/O/openweather-logo-3CE20F48B5-seeklogo.com.png;" vertex="1" parent="1">
          <mxGeometry x="57.470000000000006" y="-210" width="128.85" height="57.55" as="geometry" />
        </mxCell>
        <mxCell id="JoFa_ZvAv2UG-xMNAbuD-54" value="" style="shape=image;verticalLabelPosition=bottom;labelBackgroundColor=default;verticalAlign=top;aspect=fixed;imageAspect=0;image=https://upload.wikimedia.org/wikipedia/commons/thumb/0/05/Apache_kafka.svg/1261px-Apache_kafka.svg.png;" vertex="1" parent="1">
          <mxGeometry x="349.57" y="-270" width="60.86" height="98.83" as="geometry" />
        </mxCell>
        <mxCell id="JoFa_ZvAv2UG-xMNAbuD-55" style="edgeStyle=orthogonalEdgeStyle;rounded=0;orthogonalLoop=1;jettySize=auto;html=1;exitX=1;exitY=0.5;exitDx=0;exitDy=0;" edge="1" parent="1" source="JoFa_ZvAv2UG-xMNAbuD-57">
          <mxGeometry relative="1" as="geometry">
            <mxPoint x="627" y="-10" as="targetPoint" />
          </mxGeometry>
        </mxCell>
        <mxCell id="JoFa_ZvAv2UG-xMNAbuD-56" value="Store Data to Snwoflake DWH" style="edgeLabel;html=1;align=center;verticalAlign=middle;resizable=0;points=[];" vertex="1" connectable="0" parent="JoFa_ZvAv2UG-xMNAbuD-55">
          <mxGeometry x="-0.2968" y="3" relative="1" as="geometry">
            <mxPoint as="offset" />
          </mxGeometry>
        </mxCell>
        <mxCell id="JoFa_ZvAv2UG-xMNAbuD-57" value="" style="shape=image;verticalLabelPosition=bottom;labelBackgroundColor=default;verticalAlign=top;aspect=fixed;imageAspect=0;image=https://upload.wikimedia.org/wikipedia/commons/thumb/0/05/Apache_kafka.svg/1261px-Apache_kafka.svg.png;" vertex="1" parent="1">
          <mxGeometry x="349.57" y="-152.45" width="60.86" height="98.83" as="geometry" />
        </mxCell>
        <mxCell id="JoFa_ZvAv2UG-xMNAbuD-58" value="" style="endArrow=classic;html=1;rounded=0;exitX=0;exitY=0.5;exitDx=0;exitDy=0;entryX=1;entryY=0.5;entryDx=0;entryDy=0;" edge="1" parent="1" source="JoFa_ZvAv2UG-xMNAbuD-54" target="JoFa_ZvAv2UG-xMNAbuD-53">
          <mxGeometry width="50" height="50" relative="1" as="geometry">
            <mxPoint x="260" y="-180" as="sourcePoint" />
            <mxPoint x="310" y="-230" as="targetPoint" />
          </mxGeometry>
        </mxCell>
        <mxCell id="JoFa_ZvAv2UG-xMNAbuD-59" value="Produce" style="edgeLabel;html=1;align=center;verticalAlign=middle;resizable=0;points=[];" vertex="1" connectable="0" parent="JoFa_ZvAv2UG-xMNAbuD-58">
          <mxGeometry x="-0.1594" y="2" relative="1" as="geometry">
            <mxPoint as="offset" />
          </mxGeometry>
        </mxCell>
        <mxCell id="JoFa_ZvAv2UG-xMNAbuD-60" value="" style="endArrow=classic;html=1;rounded=0;entryX=0;entryY=0.5;entryDx=0;entryDy=0;exitX=1;exitY=0.5;exitDx=0;exitDy=0;" edge="1" parent="1" source="JoFa_ZvAv2UG-xMNAbuD-53" target="JoFa_ZvAv2UG-xMNAbuD-57">
          <mxGeometry width="50" height="50" relative="1" as="geometry">
            <mxPoint x="200" y="-102.45" as="sourcePoint" />
            <mxPoint x="250" y="-152.45" as="targetPoint" />
          </mxGeometry>
        </mxCell>
        <mxCell id="JoFa_ZvAv2UG-xMNAbuD-61" value="Consume" style="edgeLabel;html=1;align=center;verticalAlign=middle;resizable=0;points=[];" vertex="1" connectable="0" parent="JoFa_ZvAv2UG-xMNAbuD-60">
          <mxGeometry x="-0.056" y="-5" relative="1" as="geometry">
            <mxPoint x="1" as="offset" />
          </mxGeometry>
        </mxCell>
        <mxCell id="JoFa_ZvAv2UG-xMNAbuD-62" value="Consumer" style="text;html=1;strokeColor=none;fillColor=none;align=center;verticalAlign=middle;whiteSpace=wrap;rounded=0;" vertex="1" parent="1">
          <mxGeometry x="340" y="-53.62" width="60" height="30" as="geometry" />
        </mxCell>
        <mxCell id="JoFa_ZvAv2UG-xMNAbuD-63" value="Producer" style="text;html=1;strokeColor=none;fillColor=none;align=center;verticalAlign=middle;whiteSpace=wrap;rounded=0;" vertex="1" parent="1">
          <mxGeometry x="337" y="-300" width="60" height="30" as="geometry" />
        </mxCell>
        <mxCell id="JoFa_ZvAv2UG-xMNAbuD-64" value="&lt;b&gt;Snowflake&lt;br&gt;DWH&lt;br&gt;&lt;/b&gt;" style="text;html=1;strokeColor=none;fillColor=none;align=center;verticalAlign=middle;whiteSpace=wrap;rounded=0;" vertex="1" parent="1">
          <mxGeometry x="596.68" y="70.00000000000001" width="60" height="30" as="geometry" />
        </mxCell>
      </root>
    </mxGraphModel>
  </diagram>
</mxfile>
